<svg xmlns="http://www.w3.org/2000/svg" width="25" height="26" viewBox="0 0 25 26" fill="none">
<path d="M9.97068 0C4.4584 0 0 4.53044 0 10.1318C0 15.7332 4.4584 20.2636 9.97068 20.2636C10.3331 20.2636 10.6905 20.2437 11.0421 20.205C13.6862 19.9142 16.6422 20.0401 18.508 21.936L21.2418 24.714C21.9374 25.4209 23.0772 25.4209 23.7728 24.714V24.714C24.4535 24.0224 24.4528 22.9124 23.7712 22.2216L21.2058 19.6215C19.2993 17.6892 19.2829 14.6443 19.774 11.9745C19.8837 11.378 19.9414 10.7623 19.9414 10.1318C19.9414 4.53044 15.483 0 9.97068 0ZM9.97068 2.38395C14.1931 2.38395 17.5953 5.84115 17.5953 10.1318C17.5953 14.4225 14.1931 17.8797 9.97068 17.8797C5.74826 17.8797 2.34604 14.4225 2.34604 10.1318C2.34604 5.84115 5.74826 2.38395 9.97068 2.38395Z" fill="#000000"/>
</svg>